# xmcd
#
# Track frame offsets:
#	150
#	14845
#	25287
#	42004
#	53089
#	69342
#	78064
#	91345
#	103978
#	117688
#	130221
#	142498
#
# Disc length: 2000 seconds
#
# Revision: 1
# Processed by: cddbd v1.5.2PL0 Copyright (c) Steve Scherf et al.
# Submitted via: audiograbber 1.83.01
#
DISCID=ab07ce0c
DTITLE=J. B. Lenoir - Alabama Blues
DYEAR=2014
DGENRE=
TTITLE0=Alabama Blues
TTITLE1=The Mojo Boogie
TTITLE2=God´s Word
TTITLE3=The Whale Has Swallowed Me
TTITLE4=Move This Rope
TTITLE5=I Feel So Good
TTITLE6=Alabama March
TTITLE7=Talk To Your Daughter
TTITLE8=Mississippi Road
TTITLE9=Good Advice
TTITLE10=Vietnam
TTITLE11=I Want To Go
EXTD=
EXTT0=
EXTT1=
EXTT2=
EXTT3=
EXTT4=
EXTT5=
EXTT6=
EXTT7=
EXTT8=
EXTT9=
EXTT10=
EXTT11=
PLAYORDER=
